<?xml version="1.0" encoding="UTF-8" standalone="no"?>
<!DOCTYPE svg PUBLIC "-//W3C//DTD SVG 1.1//EN" "http://www.w3.org/Graphics/SVG/1.1/DTD/svg11.dtd">
<svg width="100%" height="100%" viewBox="0 0 1080 1080" version="1.1" xmlns="http://www.w3.org/2000/svg" xmlns:xlink="http://www.w3.org/1999/xlink" xml:space="preserve" xmlns:serif="http://www.serif.com/" style="fill-rule:evenodd;clip-rule:evenodd;stroke-linejoin:round;stroke-miterlimit:2;">
    <g transform="matrix(1.02803,0,0,1.02803,-81.0202,-25.5555)">
        <path d="M677.269,133.41C680.2,142.204 683.497,148.249 687.161,151.547C690.825,154.845 693.39,157.226 694.856,158.692C698.52,162.356 696.688,168.951 689.36,178.477C682.765,191.668 673.605,207.057 661.88,224.644C640.628,256.155 627.071,279.238 621.209,293.894C591.164,353.984 567.714,409.128 550.86,459.325C534.005,509.522 519.716,554.772 507.991,595.077C496.266,635.381 484.907,670.922 473.915,701.7C460.725,737.607 445.336,764.354 427.749,781.942C418.955,796.598 403.2,806.491 380.483,811.62C357.766,816.75 334.683,817.666 311.233,814.368C287.783,811.071 267.814,803.559 251.326,791.835C234.838,780.11 228.792,764.721 233.189,745.668C241.25,676.784 253.525,618.893 270.013,571.993C286.501,525.094 300.79,486.255 312.882,455.477C324.973,424.7 335.415,397.036 344.209,372.487C353.003,347.938 361.247,326.687 368.941,308.733C376.636,290.78 385.613,271.727 395.872,251.575C406.131,231.423 417.306,210.904 429.398,190.019C441.489,169.134 453.763,149.898 466.221,132.311C494.8,92.007 518.983,68.007 538.769,60.313C558.554,52.618 578.523,48.038 598.675,46.573C618.827,45.107 636.415,47.305 651.437,53.168C666.46,59.03 676.902,68.557 682.765,81.747C688.627,94.938 686.795,112.159 677.269,133.41ZM414.558,962.211C406.497,992.256 389.826,1014.79 364.544,1029.81C339.263,1044.84 312.332,1052.9 283.753,1054C255.173,1055.09 228.609,1049.6 204.06,1037.51C179.511,1025.42 164.122,1006.73 157.894,981.448C151.665,956.166 155.695,934.548 169.985,916.594C184.275,898.641 201.312,886.916 221.098,881.42C240.884,875.924 264.15,872.077 290.898,869.878C317.645,867.68 342.011,869.145 363.995,874.275C385.979,879.405 402.833,888.931 414.558,902.854C426.283,916.778 426.283,936.563 414.558,962.211Z" style="fill:url(#_Linear1);stroke:black;stroke-width:29.18px;"/>
        <g transform="matrix(1,0,0,1,-167.851,11.3351)">
            <path d="M877.974,806.284C862.336,818.702 845.548,824.912 827.61,824.912C809.671,824.912 793.688,820.197 779.659,810.768C765.631,801.339 756.087,788.345 751.027,771.787C739.988,734.991 751.027,691.525 784.144,641.39C800.702,616.553 823.7,593.785 853.137,573.087C899.592,539.971 938.918,527.782 971.115,536.521C982.154,539.281 991.123,545.49 998.022,555.149C1002.16,556.529 1003.77,558.599 1002.85,561.358L999.402,571.018C998.482,574.237 998.137,577.572 998.367,581.021C998.597,584.471 1001.7,587.346 1007.68,589.646C1017.8,602.524 1023.21,619.198 1023.89,639.666C1024.59,660.133 1020.1,675.657 1010.44,686.236C996.182,706.934 989.398,720.157 990.088,725.907C990.778,731.656 993.423,736.256 998.022,739.705C1002.62,743.155 1009.52,746.95 1018.72,751.089C1030.22,745.11 1038.73,739.82 1044.25,735.221C1066.33,713.603 1077.59,685.086 1078.05,649.67C1078.51,622.072 1073.22,597.005 1062.19,574.467C1048.39,545.49 1029.3,525.022 1004.92,513.063C970.885,496.505 924.43,502.944 865.556,532.381C840.258,545.26 815.881,565.498 792.423,593.095C760.686,628.972 740.793,655.189 732.744,671.747C724.695,688.306 718.486,704.404 714.116,720.042C709.747,735.681 707.217,751.779 706.527,768.337C705.837,784.896 708.252,800.304 713.771,814.563C727.11,846.76 756.087,865.388 800.702,870.447C817.261,872.287 828.185,875.277 833.474,879.416C838.763,883.556 841.868,888.155 842.788,893.215C843.708,898.274 844.168,903.679 844.168,909.428C844.168,915.178 846.928,920.352 852.447,924.952C862.566,933.691 864.866,942.2 859.346,950.479C853.827,958.758 843.593,965.542 828.644,970.832C813.696,976.121 795.413,979.226 773.795,980.146C752.177,981.066 730.559,978.996 708.942,973.937C657.887,961.978 623.62,935.53 606.142,894.595C592.343,863.778 590.044,822.152 599.243,769.717C608.442,720.042 626.38,668.988 653.057,616.553C681.574,561.358 715.151,515.363 753.787,478.567C811.741,422.453 877.515,389.336 951.107,379.217C1022.4,369.558 1082.65,383.817 1131.87,421.993C1147.51,433.032 1160.16,451.545 1169.82,477.532C1179.47,503.519 1183.84,534.106 1182.92,569.293C1182,604.479 1174.41,643.23 1160.16,685.546C1145.9,727.862 1122.44,770.867 1089.78,814.563C1069.55,842.16 1042.18,861.708 1007.68,873.207C974.565,884.706 945.588,886.086 920.75,877.346C894.533,868.147 881.884,850.439 882.804,824.222C880.504,818.702 878.894,812.723 877.974,806.284ZM813.811,761.438C827.15,754.999 839.223,746.03 850.032,734.531C860.841,723.032 869.235,713.718 875.215,706.589C881.194,699.459 887.404,692.445 893.843,685.546C891.543,682.786 888.093,680.946 883.494,680.026C865.556,679.107 848.997,687.386 833.819,704.864C819.56,721.882 812.891,740.74 813.811,761.438Z" style="fill:url(#_Linear2);stroke:black;stroke-width:29.18px;"/>
        </g>
    </g>
    <defs>
        <linearGradient id="_Linear1" x1="0" y1="0" x2="1" y2="0" gradientUnits="userSpaceOnUse" gradientTransform="matrix(-266.401,951.421,-975.228,-273.067,661.144,64.4125)"><stop offset="0" style="stop-color:rgb(203,73,255);stop-opacity:1"/><stop offset="1" style="stop-color:rgb(49,0,69);stop-opacity:1"/></linearGradient>
        <linearGradient id="_Linear2" x1="0" y1="0" x2="1" y2="0" gradientUnits="userSpaceOnUse" gradientTransform="matrix(-266.401,951.421,-975.228,-273.067,828.995,53.0774)"><stop offset="0" style="stop-color:rgb(203,73,255);stop-opacity:1"/><stop offset="1" style="stop-color:rgb(49,0,69);stop-opacity:1"/></linearGradient>
    </defs>
</svg>
